<svg width="118" height="116" viewBox="0 0 118 116" fill="none" xmlns="http://www.w3.org/2000/svg">
<path d="M15.9746 51.7C15.9746 60.4502 18.2001 68.6807 22.116 75.8563C17.2811 78.3464 13.9746 83.387 13.9746 89.2C13.9746 97.4842 20.6903 104.2 28.9746 104.2C34.7875 104.2 39.8282 100.893 42.3183 96.0586C49.4938 99.9744 57.7243 102.2 66.4746 102.2C94.365 102.2 116.975 79.5903 116.975 51.7C116.975 23.8096 94.365 1.19995 66.4746 1.19995C38.5842 1.19995 15.9746 23.8096 15.9746 51.7ZM8.97461 115.2C13.3929 115.2 16.9746 111.618 16.9746 107.2C16.9746 102.782 13.3929 99.2 8.97461 99.2C4.55633 99.2 0.974609 102.782 0.974609 107.2C0.974609 111.618 4.55633 115.2 8.97461 115.2Z" fill="#E9E9EA" stroke="white"/>
<path d="M66.2842 32.039C66.9977 30.615 67.9277 29.0565 68.3517 28.575C68.7757 28.0935 69.4362 27.7 69.8197 27.7C70.2032 27.7 71.1492 28.027 71.9216 28.4265C72.6941 28.826 73.6002 29.814 73.9352 30.6225C74.3207 31.553 74.4617 33.6245 74.3197 36.271C74.1967 38.5695 73.8521 41.35 73.5541 42.45C73.2556 43.55 72.8737 45.0125 72.7047 45.7L72.3976 46.95L79.9666 46.7785C86.7346 46.625 87.6422 46.7035 88.5427 47.5185C89.3402 48.24 89.4827 48.796 89.2276 50.19C89.0507 51.158 88.7252 53.8625 88.5052 56.2C88.2847 58.5375 87.9272 60.985 87.7107 61.639C87.4942 62.293 86.5502 64.093 85.6132 65.639C84.6762 67.185 83.7927 69.0125 83.6497 69.7C83.5067 70.3875 83.1262 71.3045 82.8037 71.7374C82.4812 72.1704 81.5712 72.946 80.7812 73.46C79.9912 73.974 78.1912 74.6075 76.7812 74.867C75.3712 75.1264 71.8547 75.334 68.9672 75.3275C66.0797 75.3215 62.3672 75.1154 60.7172 74.8699C59.0672 74.624 57.0162 74.005 56.1602 73.4935C55.3037 72.9825 54.1787 71.8634 53.6602 71.007C53.0372 69.979 52.5887 67.9215 52.3397 64.95C52.1317 62.475 51.9442 59.8875 51.9232 59.2C51.9017 58.5125 52.0717 57.1549 52.3007 56.1834C52.5297 55.2119 53.3617 53.412 54.1492 52.1835C54.9367 50.955 56.3992 49.3655 57.3992 48.651C58.3992 47.9365 59.9841 46.0665 60.9212 44.496C61.8587 42.925 63.1567 40.0619 63.8062 38.1339C64.4557 36.2054 65.5707 33.4625 66.2842 32.039Z" fill="#808080"/>
<path d="M41.1732 57.95C41.5532 56.85 42.5812 55.2185 43.4577 54.325C44.6962 53.0625 45.4712 52.7 46.9322 52.7C48.1612 52.7 49.1177 53.0374 49.6947 53.6749C50.3922 54.4454 50.5027 55.101 50.2227 56.7999C50.0277 57.9825 49.8552 60.6375 49.8392 62.7C49.8232 64.7625 50.0602 67.35 50.3662 68.45C50.6722 69.5499 51.0677 71.0509 51.2457 71.7859C51.5202 72.9209 51.3397 73.2404 50.0427 73.9109C49.2037 74.3449 47.9607 74.7 47.2817 74.7C46.4887 74.7 45.2712 73.9209 43.8817 72.5239C42.6257 71.2614 41.4547 69.481 41.0922 68.282C40.7487 67.1455 40.4707 64.806 40.4747 63.083C40.4787 61.36 40.7932 59.05 41.1732 57.95Z" fill="#808080"/>
</svg>
