<svg width="118" height="116" viewBox="0 0 118 116" fill="none" xmlns="http://www.w3.org/2000/svg">
<path d="M15.502 51.0527C15.502 59.803 17.7275 68.0335 21.6433 75.2091C16.8085 77.6992 13.502 82.7398 13.502 88.5527C13.502 96.837 20.2177 103.553 28.502 103.553C34.3149 103.553 39.3555 100.246 41.8456 95.4114C49.0212 99.3272 57.2517 101.553 66.002 101.553C93.8923 101.553 116.502 78.9431 116.502 51.0527C116.502 23.1624 93.8923 0.552734 66.002 0.552734C38.1116 0.552734 15.502 23.1624 15.502 51.0527ZM8.50195 114.553C12.9202 114.553 16.502 110.971 16.502 106.553C16.502 102.134 12.9202 98.5527 8.50195 98.5527C4.08368 98.5527 0.501953 102.134 0.501953 106.553C0.501953 110.971 4.08368 114.553 8.50195 114.553Z" fill="#E9E9EA" stroke="white"/>
<path d="M55.1817 30.7567C55.3112 30.1827 55.8882 29.1142 56.4642 28.3817C57.3362 27.2732 57.9027 27.0532 59.8502 27.0667C61.1362 27.0752 62.5432 27.3567 62.9762 27.6917C63.4092 28.0267 64.1727 28.9287 64.6722 29.6962C65.1717 30.4637 65.8137 32.0387 66.0987 33.1962C66.3832 34.3537 66.6167 38.3382 66.6167 42.0507C66.6167 45.7632 66.3772 49.7812 66.0847 50.9797C65.7922 52.1782 65.1112 53.7532 64.5717 54.4797C63.9262 55.3482 63.0202 55.8567 61.9277 55.9637C61.0137 56.0537 59.7707 55.8622 59.1657 55.5387C58.5612 55.2147 57.5877 54.0982 57.0027 53.0572C56.4172 52.0162 55.9387 50.6777 55.9387 50.0827C55.9387 49.4877 55.5882 48.3232 55.1597 47.4947C54.5937 46.4002 54.0817 46.0312 53.2847 46.1447C52.3257 46.2812 52.1477 46.7067 51.8627 49.5507C51.6832 51.3382 51.3737 53.4282 51.1757 54.1947C50.9692 54.9922 50.2097 55.9022 49.4017 56.3197C48.6242 56.7217 47.2247 57.0507 46.2912 57.0507C45.3002 57.0507 44.2742 56.6867 43.8267 56.1757C43.4047 55.6942 42.6567 54.5132 42.1647 53.5507C41.6727 52.5882 41.0477 50.9007 40.7757 49.8007C40.5042 48.7007 40.1932 44.4962 40.0857 40.4577C39.8972 33.4207 39.9412 33.0122 41.1382 30.6507C42.1202 28.7122 42.7127 28.1207 43.9127 27.8807C44.7522 27.7132 46.1252 27.7132 46.9647 27.8807C48.1592 28.1197 48.7562 28.7107 49.7147 30.6017C50.3877 31.9302 50.9387 33.7777 50.9387 34.7067C50.9387 35.7392 51.3132 36.7347 51.9017 37.2672C52.4312 37.7462 53.2747 38.0602 53.7767 37.9647C54.5202 37.8232 54.7122 37.2382 54.8172 34.7957C54.8882 33.1487 55.0522 31.3312 55.1817 30.7567Z" fill="#808080"/>
<path d="M58.9387 63.0412C58.9387 61.1642 59.2057 60.4197 60.2567 59.3687C61.0367 58.5892 62.1322 58.0507 62.9387 58.0507C63.7312 58.0507 64.8327 58.5807 65.5677 59.3162C66.2637 60.0117 66.9892 61.4182 67.1802 62.4412C67.3712 63.4637 67.6367 66.2972 67.7702 68.7372C67.9287 71.6367 67.7837 73.9512 67.3507 75.4187C66.9867 76.6532 66.1517 78.2007 65.4957 78.8572C64.8392 79.5137 63.9067 80.0507 63.4232 80.0507C62.9392 80.0507 62.0302 79.5172 61.4027 78.8657C60.7757 78.2137 59.8832 76.4697 59.4197 74.9907C58.9322 73.4332 58.2852 72.3007 57.8832 72.3007C57.4327 72.3007 57.0957 73.0912 56.9237 74.5507C56.7777 75.7882 56.2457 77.4942 55.7402 78.3417C55.2352 79.1892 54.3952 80.1497 53.8727 80.4757C53.1242 80.9432 52.6267 80.9152 51.5197 80.3427C50.7477 79.9432 49.8917 79.3207 49.6172 78.9587C49.3432 78.5967 48.8627 77.4007 48.5492 76.3007C48.2362 75.2007 47.8297 73.5132 47.6462 72.5507C47.4632 71.5882 47.3172 69.3382 47.3222 67.5507C47.3272 65.7632 47.4912 63.4712 47.6862 62.4572C47.8812 61.4432 48.4457 60.2467 48.9407 59.7987C49.5277 59.2677 50.5037 59.0392 51.7487 59.1427C53.2732 59.2687 53.8857 59.6422 54.7977 60.9997C55.4867 62.0252 55.9387 63.4502 55.9387 64.5952C55.9387 65.6382 56.1777 66.6397 56.4702 66.8202C56.7627 67.0007 57.4377 66.7542 57.9702 66.2722C58.6672 65.6417 58.9387 64.7352 58.9387 63.0412Z" fill="#808080"/>
<path fill-rule="evenodd" clip-rule="evenodd" d="M77.9652 28.1052C77.0172 28.6832 75.5922 29.8512 74.7977 30.7017C74.0037 31.5517 72.6662 33.6092 71.8257 35.2742C70.9852 36.9387 70.0682 38.9757 69.7882 39.8007C69.5082 40.6257 69.0962 43.4382 68.8722 46.0507C68.6487 48.6632 68.4037 51.7007 68.3272 52.8007L68.1887 54.8007L70.1887 54.9467C71.9237 55.0732 72.4842 54.8247 74.4187 53.0717C76.4672 51.2152 76.8772 51.0507 79.4552 51.0507C82.1327 51.0507 82.3847 51.1657 84.9387 53.5507C86.7757 55.2662 88.0372 56.0507 88.9592 56.0507C89.7437 56.0507 90.8502 55.5027 91.6207 54.7327C92.6102 53.7432 92.9387 52.9103 92.9387 51.3933C92.9387 50.2813 92.7332 48.6807 92.4822 47.8362C92.2307 46.9917 91.5367 44.8382 90.9397 43.0507C90.3432 41.2632 89.5182 38.9007 89.1072 37.8007C88.6957 36.7007 87.5812 34.3187 86.6297 32.5072C85.3602 30.0887 84.3887 28.9257 82.9762 28.1322C81.9182 27.5372 80.7457 27.0517 80.3707 27.0527C79.9957 27.0537 78.9132 27.5272 77.9652 28.1052ZM81.2537 43.9257C81.0882 43.3072 80.9492 42.0692 80.9457 41.1757C80.9417 40.2822 80.7272 39.5507 80.4682 39.5507C80.2092 39.5507 79.8177 39.8322 79.5972 40.1757C79.3772 40.5197 78.9262 41.5732 78.5952 42.5177C78.2642 43.4622 78.1067 44.4182 78.2457 44.6427C78.3842 44.8672 79.1857 45.0507 80.0267 45.0507C81.3682 45.0507 81.5182 44.9127 81.2537 43.9257Z" fill="#808080"/>
<path fill-rule="evenodd" clip-rule="evenodd" d="M77.1882 57.9697C76.3627 58.4732 74.8437 60.3057 73.8132 62.0427C72.7822 63.7792 71.9387 65.4027 71.9387 65.6502C71.9387 65.8977 71.5512 66.8202 71.0772 67.7007C70.6037 68.5807 70.0807 70.9882 69.9162 73.0507C69.7512 75.1132 69.4457 77.1792 69.2372 77.6417C68.9517 78.2742 69.2492 78.6857 70.4342 79.2982C71.7482 79.9782 72.1487 80.0042 72.8407 79.4572C73.2972 79.0962 74.1707 78.3147 74.7822 77.7212C75.7557 76.7752 76.2842 76.6747 79.0412 76.9092C81.7402 77.1382 82.3542 77.3812 83.3497 78.6137C84.1272 79.5757 84.9722 80.0507 85.9067 80.0507C86.7482 80.0507 87.8262 79.5272 88.6207 78.7327C89.3457 78.0077 89.9387 77.1797 89.9387 76.8932C89.9387 76.6063 89.7342 75.6807 89.4837 74.8362C89.2337 73.9917 88.7717 72.4007 88.4567 71.3007C88.1417 70.2007 87.4662 68.2882 86.9557 67.0507C86.4447 65.8132 85.7752 64.1182 85.4672 63.2847C85.1592 62.4507 84.4082 61.1877 83.7982 60.4777C83.1877 59.7682 81.9012 58.7072 80.9387 58.1207C79.9762 57.5342 79.0762 57.0542 78.9387 57.0542C78.8012 57.0542 78.0132 57.4662 77.1882 57.9697ZM79.7657 71.4377C80.2477 70.9562 80.3832 70.2542 80.1637 69.3787C79.9802 68.6482 79.6377 68.0507 79.4022 68.0507C79.1667 68.0507 78.7412 68.4857 78.4562 69.0177C78.1717 69.5497 77.9387 70.3242 77.9387 70.7382C77.9387 71.1527 78.1852 71.6442 78.4867 71.8302C78.7882 72.0167 79.3637 71.8402 79.7657 71.4377Z" fill="#808080"/>
</svg>
