<svg width="76" height="75" viewBox="0 0 76 75" fill="none" xmlns="http://www.w3.org/2000/svg">
<path d="M61.6751 48.9146C64.7287 50.5616 66.8038 53.7898 66.8038 57.5025C66.8038 62.8878 62.4381 67.2534 57.0529 67.2534C53.3401 67.2534 50.112 65.1784 48.465 62.1247C43.8994 64.5827 38.6767 65.9774 33.1282 65.9774C15.2344 65.9774 0.728561 51.4716 0.728561 33.5778C0.728561 15.684 15.2344 1.17822 33.1282 1.17822C51.022 1.17822 65.5278 15.684 65.5278 33.5778C65.5278 39.1263 64.133 44.3491 61.6751 48.9146ZM69.8127 74.2713C66.8939 74.2713 64.5278 71.9052 64.5278 68.9864C64.5278 66.0676 66.8939 63.7015 69.8127 63.7015C72.7315 63.7015 75.0977 66.0676 75.0977 68.9864C75.0977 71.9052 72.7315 74.2713 69.8127 74.2713Z" fill="#E9E9EA" stroke="white"/>
<path fill-rule="evenodd" clip-rule="evenodd" d="M22.0986 24.0177C21.5146 24.3737 20.711 24.9906 20.3132 25.3884C19.9151 25.7865 19.332 26.5052 19.0171 26.9859C18.702 27.4667 18.3042 28.4642 18.1329 29.2026C17.9616 29.9411 17.8215 31.0477 17.8215 31.6618C17.8215 32.2758 17.9587 33.3525 18.1265 34.0543C18.294 34.756 18.8838 36.2202 19.4366 37.3083C20.0969 38.607 21.4016 40.252 23.2365 42.099C24.7737 43.6458 26.5336 45.2631 27.1477 45.6928C27.7618 46.1225 28.4594 46.6638 28.6983 46.8958C28.937 47.1277 29.8295 47.6709 30.6812 48.1025C31.5333 48.5344 32.4284 48.8876 32.6702 48.8876C32.912 48.8876 34.0291 48.2952 35.1529 47.5711C36.2767 46.847 37.2679 46.1579 37.3556 46.0405C37.4433 45.9228 38.0175 45.4762 38.6316 45.0478C39.2456 44.6197 40.4817 43.5374 41.3784 42.6423C42.2751 41.7475 43.7144 39.9512 44.5767 38.6513C45.4389 37.3511 46.3446 35.713 46.5892 35.0112C46.8339 34.3094 47.0279 32.8456 47.0199 31.7581C47.0122 30.671 46.81 29.1187 46.5711 28.3088C46.3318 27.4989 45.7008 26.361 45.1684 25.7801C44.6363 25.1989 43.7014 24.419 43.0911 24.047C42.2203 23.5162 41.4652 23.3701 39.5886 23.3701C37.7192 23.3701 36.9556 23.5169 36.0965 24.0406C35.4917 24.4094 34.5912 25.1453 34.0951 25.6761C33.5994 26.2069 33.0533 26.874 32.882 27.1579C32.6035 27.6201 32.5119 27.6035 32.0124 27.0009C31.7055 26.6306 31.1671 25.9661 30.8162 25.5246C30.4653 25.0831 29.6757 24.4177 29.0617 24.0461C28.1876 23.5169 27.4255 23.3701 25.5527 23.3701C23.7102 23.3701 22.9162 23.5191 22.0986 24.0177Z" fill="#F85D96"/>
</svg>
